<mxfile host="www.draw.io" modified="2020-03-24T05:24:57.221Z" agent="Mozilla/5.0 (Macintosh; Intel Mac OS X 10_13_6) AppleWebKit/537.36 (KHTML, like Gecko) Chrome/80.0.3987.149 Safari/537.36" etag="wHHlEcqZCYVAoLmPZUJV" version="12.9.0" type="github">
  <diagram id="cRB-VY4r5xFSUh1gU0PR" name="Page-1">
    <mxGraphModel dx="892" dy="498" grid="1" gridSize="10" guides="1" tooltips="1" connect="1" arrows="1" fold="1" page="1" pageScale="1" pageWidth="827" pageHeight="1169" math="0" shadow="0">
      <root>
        <mxCell id="0" />
        <mxCell id="1" parent="0" />
        <mxCell id="IecC3MAi5Ed5nnkMDxmG-1" value="支付方案 Prgpaym&lt;br&gt;CBOH_PRGPAYT_3CH" style="rounded=1;whiteSpace=wrap;html=1;" vertex="1" parent="1">
          <mxGeometry x="244" y="140" width="170" height="60" as="geometry" />
        </mxCell>
        <mxCell id="IecC3MAi5Ed5nnkMDxmG-2" value="支付方案明细 Prgpayd&lt;br&gt;CBOH_PRGPAYT_B_3CH" style="rounded=1;whiteSpace=wrap;html=1;" vertex="1" parent="1">
          <mxGeometry x="244" y="280" width="170" height="60" as="geometry" />
        </mxCell>
        <mxCell id="IecC3MAi5Ed5nnkMDxmG-3" value="支付方式 Paymode&lt;br&gt;CBOH_PAYMODE_3CH" style="rounded=1;whiteSpace=wrap;html=1;" vertex="1" parent="1">
          <mxGeometry x="470" y="280" width="170" height="60" as="geometry" />
        </mxCell>
        <mxCell id="IecC3MAi5Ed5nnkMDxmG-4" value="" style="endArrow=none;html=1;entryX=1;entryY=0.5;entryDx=0;entryDy=0;exitX=0;exitY=0.5;exitDx=0;exitDy=0;" edge="1" parent="1" source="IecC3MAi5Ed5nnkMDxmG-3" target="IecC3MAi5Ed5nnkMDxmG-2">
          <mxGeometry width="50" height="50" relative="1" as="geometry">
            <mxPoint x="375" y="174.77744807121667" as="sourcePoint" />
            <mxPoint x="123" y="100" as="targetPoint" />
          </mxGeometry>
        </mxCell>
        <mxCell id="IecC3MAi5Ed5nnkMDxmG-7" value="1" style="endArrow=open;html=1;endSize=12;startArrow=diamondThin;startSize=14;startFill=0;edgeStyle=orthogonalEdgeStyle;align=left;verticalAlign=bottom;exitX=0.5;exitY=0;exitDx=0;exitDy=0;entryX=0.5;entryY=1;entryDx=0;entryDy=0;" edge="1" parent="1" source="IecC3MAi5Ed5nnkMDxmG-2" target="IecC3MAi5Ed5nnkMDxmG-1">
          <mxGeometry x="0.0722" y="40" relative="1" as="geometry">
            <mxPoint x="178.5999999999999" y="297.17999999999995" as="sourcePoint" />
            <mxPoint x="179" y="250" as="targetPoint" />
            <Array as="points">
              <mxPoint x="329" y="250" />
              <mxPoint x="329" y="250" />
            </Array>
            <mxPoint x="40" y="40" as="offset" />
          </mxGeometry>
        </mxCell>
        <mxCell id="IecC3MAi5Ed5nnkMDxmG-8" value="门店 Store&lt;br&gt;CBOH_STORE_3CH" style="rounded=1;whiteSpace=wrap;html=1;" vertex="1" parent="1">
          <mxGeometry x="244" y="20" width="170" height="60" as="geometry" />
        </mxCell>
        <mxCell id="IecC3MAi5Ed5nnkMDxmG-9" value="" style="endArrow=none;html=1;entryX=0.5;entryY=0;entryDx=0;entryDy=0;exitX=0.5;exitY=1;exitDx=0;exitDy=0;" edge="1" parent="1" source="IecC3MAi5Ed5nnkMDxmG-8" target="IecC3MAi5Ed5nnkMDxmG-1">
          <mxGeometry width="50" height="50" relative="1" as="geometry">
            <mxPoint x="254" y="320" as="sourcePoint" />
            <mxPoint x="180" y="320" as="targetPoint" />
            <Array as="points" />
          </mxGeometry>
        </mxCell>
      </root>
    </mxGraphModel>
  </diagram>
</mxfile>
